<?xml version="1.0" standalone="no"?>
<!DOCTYPE svg PUBLIC "-//W3C//DTD SVG 20010904//EN"
 "http://www.w3.org/TR/2001/REC-SVG-20010904/DTD/svg10.dtd">
<svg version="1.0" xmlns="http://www.w3.org/2000/svg"
 width="512.000000pt" height="512.000000pt" viewBox="0 0 512.000000 512.000000"
 preserveAspectRatio="xMidYMid meet">
<metadata>
Created by potrace 1.14, written by Peter Selinger 2001-2017
</metadata>
<g transform="translate(0.000000,512.000000) scale(0.100000,-0.100000)"
fill="#000000" stroke="none">
<path d="M1125 3173 c-42 -10 -45 -26 -45 -268 0 -196 -2 -234 -16 -254 -14
-19 -14 -29 -4 -67 9 -30 11 -75 6 -137 -3 -50 -9 -131 -12 -178 -12 -160 27
-252 124 -297 57 -27 57 -27 292 -26 249 1 344 13 435 53 56 25 80 66 50 87
-35 26 -91 27 -315 5 -352 -34 -463 -28 -476 26 -10 38 2 375 14 404 6 15 17
29 26 32 9 4 96 13 193 22 221 19 339 39 411 68 56 22 104 70 86 85 -13 13
-167 -3 -334 -33 -80 -14 -193 -29 -252 -32 l-107 -6 -3 194 c-2 107 -2 195
-2 197 1 1 142 7 315 11 295 9 316 8 363 -10 27 -10 53 -16 58 -13 14 9 9 40
-13 68 -43 55 -61 58 -343 62 -144 2 -299 5 -346 8 -47 2 -94 2 -105 -1z"/>
<path d="M2794 2972 c-34 -22 -59 -112 -129 -465 -53 -270 -72 -344 -89 -349
-4 -2 -37 62 -73 142 -35 80 -86 192 -112 250 -27 58 -65 148 -86 200 -38 95
-88 184 -118 208 -23 19 -81 12 -85 -11 -11 -54 132 -406 314 -774 86 -176
119 -233 132 -233 92 0 261 472 301 840 15 136 -10 222 -55 192z"/>
<path d="M3250 2899 c-195 -38 -326 -233 -306 -454 14 -145 63 -258 152 -348
129 -130 298 -177 518 -142 188 29 285 66 363 138 83 76 107 157 79 268 -66
260 -315 461 -664 534 -81 17 -78 16 -142 4z m160 -124 c278 -66 496 -249 539
-454 10 -48 9 -58 -10 -98 -63 -129 -393 -219 -562 -154 -87 34 -202 116 -246
175 -76 101 -86 129 -86 246 0 97 2 109 29 157 72 130 169 167 336 128z"/>
</g>
</svg>
